<svg id="Layer_1" data-name="Layer 1" xmlns="http://www.w3.org/2000/svg" viewBox="0 0 512 389.566"><defs><style>.cls-1{fill:#369499;}.cls-2{fill:#7bc2c6;}</style></defs><path class="cls-1" d="M98.014,336.856a3.931,3.931,0,0,1,1.9.375,2.339,2.339,0,0,1,1.007,1.382,13.028,13.028,0,0,1,.02,5.783,2.342,2.342,0,0,1-.987,1.382,3.856,3.856,0,0,1-1.935.395h-15.2V319.248H78.037q-4.145,0-6.04,1.816t-1.895,5.8v14.923a24.514,24.514,0,0,1-2.685,11.9,17.484,17.484,0,0,1-7.915,7.462A28.808,28.808,0,0,1,46.809,363.7a28.675,28.675,0,0,1-12.673-2.546,17.5,17.5,0,0,1-7.9-7.462,24.514,24.514,0,0,1-2.684-11.9V320.946h9.988v17.292q0,7.62,2.981,11.9t10.284,4.283q7.344,0,10.3-4.283t2.961-11.9V325.881q0-15.949,15.516-15.95H92.842v26.925Zm-57.087,29.61a4.9,4.9,0,0,1,2.566.71,5.089,5.089,0,0,1,1.855,1.915,5.3,5.3,0,0,1,.671,2.625,4.833,4.833,0,0,1-.69,2.507,5.4,5.4,0,0,1-1.856,1.876,4.8,4.8,0,0,1-2.546.71,4.907,4.907,0,0,1-2.567-.71,5.515,5.515,0,0,1-1.895-1.876,4.733,4.733,0,0,1-.71-2.507,5.233,5.233,0,0,1,2.586-4.54,5,5,0,0,1,2.586-.71Zm12.633,0a4.829,4.829,0,0,1,2.527.71,5.271,5.271,0,0,1,2.566,4.54,4.763,4.763,0,0,1-.711,2.488,5.5,5.5,0,0,1-1.875,1.895,4.736,4.736,0,0,1-2.507.71,5.293,5.293,0,0,1-2.665-.71,5.523,5.523,0,0,1-1.974-1.876,4.631,4.631,0,0,1-.73-2.507,4.968,4.968,0,0,1,.73-2.625,5.4,5.4,0,0,1,1.974-1.915,5.283,5.283,0,0,1,2.665-.71Zm62.646-56.535h21.161q7.895,0,11.666,4.066t3.77,11.884v20.292H98.084a3.852,3.852,0,0,1-1.934-.395,2.342,2.342,0,0,1-.987-1.382,12.989,12.989,0,0,1,.02-5.783,2.338,2.338,0,0,1,1.006-1.382,3.934,3.934,0,0,1,1.9-.375h44.731v-9.988q0-3.988-1.9-5.8t-6.04-1.816H103.651v-4.3a13.8,13.8,0,0,1,.77-4.876,11.373,11.373,0,0,1,2.645-3.928,35.419,35.419,0,0,1,5.429-4.264l26.49-17.805v10.856Zm64.18,0q7.9,0,11.666,4.066t3.771,11.884v10.975h5.369a3.952,3.952,0,0,1,1.875.375,2.24,2.24,0,0,1,1.007,1.382,13.818,13.818,0,0,1,.02,5.783,2.269,2.269,0,0,1-.968,1.382,3.852,3.852,0,0,1-1.934.395H158.87v-9.317H185.8v-9.988q0-3.988-1.876-5.8t-6.02-1.816H164.792v-9.317Zm-3.869-17.687a4.9,4.9,0,0,1,2.566.711,5.082,5.082,0,0,1,1.856,1.914,5.309,5.309,0,0,1,.671,2.626,4.834,4.834,0,0,1-.691,2.507,5.4,5.4,0,0,1-1.856,1.875,4.793,4.793,0,0,1-2.546.711,4.893,4.893,0,0,1-2.566-.711A5.5,5.5,0,0,1,172.056,300a4.725,4.725,0,0,1-.711-2.507,5.229,5.229,0,0,1,2.586-4.54,5,5,0,0,1,2.586-.711Zm24.738,53.929a3.856,3.856,0,0,1-1.935-.395,2.342,2.342,0,0,1-.987-1.382,12.989,12.989,0,0,1,.02-5.783,2.335,2.335,0,0,1,1.007-1.382,3.928,3.928,0,0,1,1.895-.375h10.422V292.244h10.028v53.929Zm30.962,0V292.244h10.027v53.929Zm56.917-36.242q7.9,0,11.666,4.066t3.77,11.884v10.975h5.37a3.952,3.952,0,0,1,1.875.375,2.24,2.24,0,0,1,1.007,1.382,13.8,13.8,0,0,1,.019,5.783,2.264,2.264,0,0,1-.967,1.382,3.852,3.852,0,0,1-1.934.395H267.617v-9.317h26.926v-9.988q0-3.988-1.876-5.8t-6.02-1.816H273.539v-9.317ZM310,346.173a3.856,3.856,0,0,1-1.935-.395,2.342,2.342,0,0,1-.987-1.382,12.989,12.989,0,0,1,.02-5.783,2.335,2.335,0,0,1,1.007-1.382,3.928,3.928,0,0,1,1.895-.375h10.5v-24.32h10.028v24.32h9.238v-24.32H349.8v24.32H359V309.931h10.028v36.242Zm28.385-53.929a4.9,4.9,0,0,1,2.567.711,5.087,5.087,0,0,1,1.855,1.914,5.309,5.309,0,0,1,.671,2.626A4.824,4.824,0,0,1,342.79,300a5.388,5.388,0,0,1-1.855,1.875,4.8,4.8,0,0,1-2.547.711,4.9,4.9,0,0,1-2.566-.711A5.512,5.512,0,0,1,333.927,300a4.724,4.724,0,0,1-.71-2.507,5.229,5.229,0,0,1,2.586-4.54,5,5,0,0,1,2.585-.711Zm6.475-10.818a4.8,4.8,0,0,1,2.547.711,5.291,5.291,0,0,1,1.855,1.915,5.191,5.191,0,0,1,.691,2.625,4.866,4.866,0,0,1-.691,2.487,5.279,5.279,0,0,1-1.875,1.9,4.83,4.83,0,0,1-2.527.711,5.177,5.177,0,0,1-2.645-.711,5.486,5.486,0,0,1-1.954-1.9,4.655,4.655,0,0,1-.731-2.487,5.072,5.072,0,0,1,.711-2.625,5.4,5.4,0,0,1,4.619-2.626Zm6.159,10.818a5.009,5.009,0,0,1,2.566.691,5.232,5.232,0,0,1,1.895,1.895,5,5,0,0,1,.711,2.586,4.927,4.927,0,0,1-.711,2.546,5.391,5.391,0,0,1-1.895,1.915,4.9,4.9,0,0,1-2.566.711,4.791,4.791,0,0,1-2.546-.711,5.332,5.332,0,0,1-1.856-1.895,5,5,0,0,1-.691-2.566,5.222,5.222,0,0,1,.671-2.586,4.94,4.94,0,0,1,1.856-1.895,5.006,5.006,0,0,1,2.566-.691Zm48.013,44.612a3.928,3.928,0,0,1,1.895.375,2.335,2.335,0,0,1,1.007,1.382,12.989,12.989,0,0,1,.02,5.783,2.342,2.342,0,0,1-.987,1.382,3.856,3.856,0,0,1-1.935.395h-5.171q0,8.329-4.027,12.93T377.6,363.7h-4.106v-9.515h3.119q3.75,0,5.488-2.309a9.628,9.628,0,0,0,1.737-5.942v-36h10.028v26.925Zm27.7-26.925q15.476,0,15.476,15.95v10.975h5.251a3.934,3.934,0,0,1,1.9.375,2.338,2.338,0,0,1,1.006,1.382,12.989,12.989,0,0,1,.02,5.783,2.342,2.342,0,0,1-.987,1.382,3.852,3.852,0,0,1-1.934.395H399.023a3.849,3.849,0,0,1-1.934-.395,2.338,2.338,0,0,1-.987-1.382,13.008,13.008,0,0,1,.019-5.783,2.339,2.339,0,0,1,1.007-1.382,3.934,3.934,0,0,1,1.9-.375h8.646V309.931ZM417.7,336.856h14.489v-9.988q0-3.988-1.895-5.8t-6.04-1.816H417.7Zm29.758,9.317a3.856,3.856,0,0,1-1.935-.395,2.342,2.342,0,0,1-.987-1.382,12.989,12.989,0,0,1,.02-5.783,2.335,2.335,0,0,1,1.007-1.382,3.931,3.931,0,0,1,1.895-.375h10.422V292.244h10.028v53.929Zm30.962,0V292.244h10.027v53.929Z"/><polygon class="cls-1" points="255.059 13.21 387.957 146.106 488.444 146.106 355.546 13.21 255.059 13.21"/><polygon class="cls-1" points="150.806 117.253 283.702 250.151 384.191 250.151 251.293 117.253 150.806 117.253"/><polygon class="cls-2" points="241.461 12.757 23.556 183.701 137.556 183.701 355.095 12.757 241.461 12.757"/><polygon class="cls-2" points="387.957 146.105 283.912 250.15 384.402 250.15 488.444 146.105 438.199 95.863 387.957 146.105"/></svg>